<svg width="10" height="16" fill="none" xmlns="http://www.w3.org/2000/svg"><path d="M8.5 0h-7C.6728 0 0 .6728 0 1.5v13c0 .8272.6728 1.5 1.5 1.5h7c.8271 0 1.5-.6728 1.5-1.5v-13C10 .6728 9.3271 0 8.5 0Zm-7 1h7c.2759 0 .5.2241.5.5V12H1V1.5c0-.2759.2241-.5.5-.5Zm7 14h-7a.5003.5003 0 0 1-.5-.5V13h8v1.5c0 .2759-.2241.5-.5.5Z" fill="#757575"/><path d="M2.3535 13.7389c.1953.1824.1953.478 0 .6603-.1952.1824-.5118.1824-.707 0-.1953-.1823-.1953-.4779 0-.6603.1952-.1823.5118-.1823.707 0Z" fill="#757575"/></svg>